<svg xmlns="http://www.w3.org/2000/svg" width="512" height="512" viewBox="0 0 512 512">
<defs>
 <linearGradient id="bg" x1="0" y1="0" x2="1" y2="1">
  <stop offset="0" stop-color="#06243f"/><stop offset="0.58" stop-color="#0a4067"/><stop offset="1" stop-color="#062c4d"/>
 </linearGradient>
 <linearGradient id="gold" x1="0" y1="1" x2="1" y2="0">
  <stop offset="0" stop-color="#e48a1b"/><stop offset="0.55" stop-color="#f7bd39"/><stop offset="1" stop-color="#ffe284"/>
 </linearGradient>
 <linearGradient id="teal" x1="0" y1="1" x2="0" y2="0">
  <stop offset="0" stop-color="#0a8f8e"/><stop offset="1" stop-color="#35d1ae"/>
 </linearGradient>
</defs>
<rect width="512" height="512" fill="url(#bg)"/>
<path d="M95 82 Q256 7 417 82 M57 145 Q256 42 455 145 M45 217 Q256 105 467 217 M45 295 Q256 407 467 295" fill="none" stroke="#2670a1" stroke-opacity=".28" stroke-width="9"/>
<path d="M116 44 Q56 256 116 468 M203 29 Q148 256 203 483 M296 29 Q351 256 296 483 M383 44 Q443 256 383 468" fill="none" stroke="#2670a1" stroke-opacity=".22" stroke-width="9"/>
<rect x="122" y="278" width="54" height="92" rx="12" fill="url(#teal)"/>
<rect x="197" y="235" width="54" height="135" rx="12" fill="#23c18d"/>
<rect x="272" y="181" width="54" height="189" rx="12" fill="url(#gold)"/>
<path d="M102 298 C165 282 211 250 259 214 C306 178 339 142 371 112" fill="none" stroke="#092947" stroke-opacity=".44" stroke-width="34" stroke-linecap="round"/>
<path d="M102 288 C165 272 211 240 259 204 C306 168 339 132 371 102" fill="none" stroke="url(#gold)" stroke-width="22" stroke-linecap="round"/>
<path d="M344 86 L405 79 L389 139 Z" fill="#ffe07c"/>
<text x="256" y="432" text-anchor="middle" font-family="Arial, Helvetica, sans-serif" font-weight="800" font-size="76" fill="#ffffff">13</text>
<text x="256" y="430" text-anchor="middle" font-family="Arial, Helvetica, sans-serif" font-weight="800" font-size="76" fill="url(#gold)">13</text>
</svg>